<svg width="400" height="650" viewBox="0 0 400 650" fill="none" xmlns="http://www.w3.org/2000/svg">
<rect width="400" height="650" rx="15" fill="#008746"/>
<path d="M67.8522 270.2H41.4522V255.88C41.3722 252.12 41.3722 248.44 41.4522 244.68V230.44H51.3722C51.8522 230.36 52.3322 230.36 52.8922 230.36C53.4522 230.36 54.1722 230.36 54.8922 230.44H67.4522L67.7722 223.56C67.7722 223.56 59.7722 221.48 52.8922 221.48C40.4922 221.48 32.3322 229.96 32.0922 240.28C31.9322 246.92 31.9322 253.64 32.0922 260.28C32.3322 270.6 40.3322 279.08 52.8922 279.08C59.4522 279.08 68.0922 276.92 68.0922 276.92L67.8522 270.2ZM73.1041 238.92V278.92H81.7441V247.16H97.7441V278.92H106.464V238.92H73.1041ZM140.457 239.08L129.897 268.28H129.497L119.657 239.08H110.617L123.737 276.68L125.977 277.48L119.577 293.48H128.457L149.337 239.08H140.457ZM150.458 238.92V247.16H162.058V278.92H170.778V247.16H182.538V238.92H150.458ZM211.26 238.92V253.96H195.26V238.92H186.62V278.92H195.26V262.2H211.26V278.92H219.98V238.92H211.26ZM251.492 238.92L237.012 261.96L235.412 265.8L235.652 261.8V238.92H226.932V278.92H235.892L250.532 255.88L251.972 252.2L251.732 256.2V278.92H260.532V238.92H251.492ZM284.999 257.8L301.079 238.92H290.599L276.119 256.6V238.92H267.479V278.92H276.119V259.24L291.559 278.92H302.279L284.999 257.8ZM364.124 223.08L350.764 270.36L337.404 223.08H327.724L344.764 279H356.764L373.884 223.08H364.124Z" fill="#272727"/>
<rect width="24.8795" height="34.1265" rx="12.4397" transform="matrix(-7.9709e-05 -1 1 0 256.873 425.301)" fill="#272727"/>
<rect width="24.8795" height="34.2121" rx="12.4397" transform="matrix(-7.9709e-05 -1 1 0 254.972 452.61)" fill="#272727"/>
<rect width="24.8795" height="34.2121" rx="12.4397" transform="matrix(-7.9709e-05 -1 1 0 254.972 452.61)" fill="#272727"/>
<rect width="24.8795" height="34.2121" rx="12.4397" transform="matrix(-7.9709e-05 -1 1 0 248.386 479.854)" fill="#272727"/>
<rect width="24.8795" height="34.2121" rx="12.4397" transform="matrix(-7.9709e-05 -1 1 0 248.386 479.854)" fill="#272727"/>
<rect width="24.8795" height="34.2121" rx="12.4397" transform="matrix(-7.9709e-05 -1 1 0 237.177 507.019)" fill="#272727"/>
<rect width="24.8795" height="34.2121" rx="12.4397" transform="matrix(-7.9709e-05 -1 1 0 237.177 507.019)" fill="#272727"/>
<path d="M116.273 368.686C111.707 379.539 116.804 392.038 127.657 396.604L134.529 399.494L161.176 336.156C141.912 336.741 124.76 348.512 117.286 366.276L116.273 368.686Z" fill="#272727"/>
<path d="M125.284 440.65C125.283 418.559 143.19 400.65 165.281 400.65H251.349L238.647 474.096C235.331 493.271 218.696 507.277 199.235 507.277H165.29C143.198 507.277 125.288 489.368 125.287 467.277L125.284 440.65Z" fill="#272727"/>
</svg>
