<svg width="400" height="650" viewBox="0 0 400 650" fill="none" xmlns="http://www.w3.org/2000/svg">
<g clip-path="url(#clip0)">
<rect width="400" height="650" rx="15" fill="#0017E8"/>
<circle cx="195.057" cy="312.528" r="123.528" transform="rotate(-90 195.057 312.528)" fill="white"/>
<circle cx="148.116" cy="364.411" r="123.528" transform="rotate(-90 148.116 364.411)" fill="white" fill-opacity="0.8"/>
<circle cx="103.647" cy="425.351" r="123.528" transform="rotate(-90 103.647 425.351)" fill="white" fill-opacity="0.6"/>
<circle cx="71.5293" cy="492.88" r="123.528" transform="rotate(-90 71.5293 492.88)" fill="white" fill-opacity="0.4"/>
<circle cx="71.5284" cy="564.526" r="123.528" transform="rotate(-90 71.5284 564.526)" fill="white" fill-opacity="0.2"/>
<circle cx="103.023" cy="616.23" r="123.528" transform="rotate(-90 103.023 616.23)" fill="white" fill-opacity="0.1"/>
<circle cx="155.89" cy="672.472" r="123.528" transform="rotate(-90 155.89 672.472)" fill="white" fill-opacity="0.1"/>
<circle cx="195.53" cy="312.472" r="123.528" transform="rotate(90 195.53 312.472)" fill="white"/>
<circle cx="242.47" cy="260.589" r="123.528" transform="rotate(90 242.47 260.589)" fill="white" fill-opacity="0.8"/>
<circle cx="286.938" cy="199.649" r="123.528" transform="rotate(90 286.938 199.649)" fill="white" fill-opacity="0.6"/>
<circle cx="319.058" cy="132.12" r="123.528" transform="rotate(90 319.058 132.12)" fill="white" fill-opacity="0.4"/>
<circle cx="319.058" cy="60.4736" r="123.528" transform="rotate(90 319.058 60.4736)" fill="white" fill-opacity="0.2"/>
<circle cx="287.563" cy="8.76952" r="123.528" transform="rotate(90 287.563 8.76952)" fill="white" fill-opacity="0.1"/>
<circle cx="234.696" cy="-47.4716" r="123.528" transform="rotate(90 234.696 -47.4716)" fill="white" fill-opacity="0.1"/>
<path d="M127.39 298.612C127.39 297.181 126.809 296.079 125.648 295.304C124.504 294.529 122.429 293.746 119.423 292.956C116.417 292.167 114.026 291.287 112.25 290.319C108.852 288.456 107.153 286.027 107.153 283.031C107.153 280.408 108.374 278.247 110.816 276.548C113.275 274.849 116.46 274 120.371 274C122.967 274 125.281 274.417 127.313 275.252C129.345 276.086 130.942 277.279 132.103 278.829C133.264 280.364 133.845 282.07 133.845 283.948H127.39C127.39 282.249 126.775 280.922 125.545 279.969C124.333 279 122.591 278.516 120.32 278.516C118.202 278.516 116.554 278.911 115.376 279.7C114.214 280.49 113.634 281.593 113.634 283.009C113.634 284.201 114.266 285.2 115.529 286.004C116.793 286.794 118.877 287.569 121.78 288.329C124.683 289.074 127.014 289.931 128.773 290.9C130.532 291.854 131.821 292.956 132.641 294.208C133.461 295.445 133.871 296.898 133.871 298.567C133.871 301.28 132.675 303.441 130.284 305.05C127.911 306.645 124.683 307.442 120.601 307.442C117.903 307.442 115.418 307.01 113.147 306.145C110.893 305.266 109.134 304.059 107.87 302.524C106.623 300.989 106 299.201 106 297.159H112.481C112.481 299.007 113.181 300.438 114.582 301.451C115.982 302.464 117.988 302.971 120.601 302.971C122.856 302.971 124.546 302.576 125.673 301.786C126.818 300.982 127.39 299.924 127.39 298.612Z" fill="#0017E8"/>
<path d="M144.809 282.808L144.988 285.334C146.935 283.352 149.599 282.361 152.981 282.361C156.686 282.361 159.222 283.597 160.589 286.071C162.604 283.597 165.439 282.361 169.093 282.361C172.15 282.361 174.422 283.098 175.907 284.574C177.41 286.049 178.179 288.225 178.213 291.101V306.995H171.988V291.258C171.988 289.723 171.604 288.597 170.835 287.882C170.067 287.167 168.794 286.809 167.018 286.809C165.601 286.809 164.44 287.144 163.535 287.815C162.646 288.471 162.023 289.335 161.665 290.408L161.69 306.995H155.465V291.079C155.38 288.232 153.715 286.809 150.47 286.809C147.977 286.809 146.209 287.696 145.168 289.469V306.995H138.943V282.808H144.809Z" fill="#0017E8"/>
<path d="M201.165 306.995C200.892 306.533 200.653 305.78 200.448 304.737C198.467 306.54 196.042 307.442 193.173 307.442C190.389 307.442 188.118 306.749 186.359 305.363C184.6 303.977 183.72 302.263 183.72 300.222C183.72 297.643 184.813 295.669 186.999 294.298C189.202 292.912 192.344 292.219 196.426 292.219H200.243V290.632C200.243 289.38 199.842 288.381 199.039 287.636C198.236 286.876 197.015 286.496 195.376 286.496C193.958 286.496 192.797 286.809 191.892 287.435C190.987 288.046 190.534 288.828 190.534 289.782H184.309C184.309 288.456 184.813 287.219 185.821 286.071C186.828 284.909 188.195 284 189.919 283.344C191.661 282.688 193.6 282.361 195.734 282.361C198.979 282.361 201.566 283.076 203.496 284.507C205.426 285.922 206.416 287.919 206.468 290.497V301.406C206.468 303.582 206.818 305.318 207.518 306.615V306.995H201.165ZM194.325 303.083C195.555 303.083 196.708 302.822 197.784 302.301C198.877 301.779 199.696 301.079 200.243 300.199V295.639H196.887C194.582 295.639 192.848 295.989 191.687 296.69C190.526 297.39 189.945 298.381 189.945 299.663C189.945 300.706 190.338 301.541 191.123 302.166C191.926 302.777 192.993 303.083 194.325 303.083Z" fill="#0017E8"/>
<path d="M227.499 287.77C226.679 287.651 225.834 287.591 224.963 287.591C222.111 287.591 220.19 288.545 219.199 290.453V306.995H212.974V282.808H218.917L219.071 285.512C220.574 283.411 222.657 282.361 225.321 282.361C226.209 282.361 226.944 282.465 227.524 282.673L227.499 287.77Z" fill="#0017E8"/>
<path d="M240.512 276.928V282.808H245.405V286.831H240.512V300.333C240.512 301.257 240.717 301.928 241.127 302.345C241.554 302.748 242.305 302.949 243.381 302.949C244.098 302.949 244.824 302.874 245.558 302.725V306.928C244.141 307.271 242.775 307.442 241.46 307.442C236.678 307.442 234.287 305.14 234.287 300.535V286.831H229.727V282.808H234.287V276.928H240.512Z" fill="#0017E8"/>
<path d="M112.481 341.724V353.817H106V321.269H120.268C124.435 321.269 127.74 322.216 130.182 324.108C132.641 326.001 133.871 328.505 133.871 331.619C133.871 334.809 132.667 337.29 130.259 339.063C127.868 340.837 124.512 341.724 120.192 341.724H112.481ZM112.481 337.186H120.268C122.574 337.186 124.333 336.716 125.545 335.777C126.758 334.824 127.364 333.452 127.364 331.664C127.364 329.906 126.749 328.505 125.52 327.462C124.29 326.403 122.599 325.859 120.448 325.83H112.481V337.186Z" fill="#0017E8"/>
<path d="M137.431 341.5C137.431 339.13 137.969 336.999 139.045 335.107C140.121 333.199 141.632 331.739 143.579 330.725C145.526 329.697 147.763 329.183 150.291 329.183C154.031 329.183 157.062 330.233 159.385 332.335C161.724 334.436 162.988 337.223 163.176 340.695L163.201 341.969C163.201 344.354 162.672 346.485 161.613 348.363C160.572 350.241 159.069 351.694 157.105 352.722C155.158 353.75 152.904 354.264 150.342 354.264C146.431 354.264 143.298 353.132 140.941 350.866C138.601 348.586 137.431 345.554 137.431 341.768V341.5ZM143.656 341.969C143.656 344.458 144.245 346.41 145.424 347.826C146.602 349.227 148.241 349.928 150.342 349.928C152.443 349.928 154.074 349.212 155.235 347.782C156.413 346.351 157.002 344.257 157.002 341.5C157.002 339.056 156.396 337.119 155.184 335.688C153.988 334.257 152.357 333.542 150.291 333.542C148.259 333.542 146.645 334.25 145.449 335.666C144.254 337.066 143.656 339.168 143.656 341.969Z" fill="#0017E8"/>
<path d="M175.088 353.817H168.863V319.481H175.088V353.817Z" fill="#0017E8"/>
<path d="M206.007 341.545C206.007 337.789 207.014 334.794 209.029 332.558C211.062 330.308 213.751 329.183 217.098 329.183C220.258 329.183 222.743 330.144 224.553 332.066L224.835 329.63H230.445V353.08C230.445 356.254 229.309 358.758 227.038 360.591C224.783 362.424 221.735 363.34 217.893 363.34C215.86 363.34 213.871 362.968 211.924 362.222C209.994 361.492 208.526 360.531 207.518 359.339L210.464 356.075C212.377 358.057 214.733 359.048 217.534 359.048C219.6 359.048 221.231 358.556 222.427 357.573C223.622 356.604 224.22 355.173 224.22 353.281V351.649C222.427 353.392 220.036 354.264 217.047 354.264C213.803 354.264 211.147 353.139 209.081 350.889C207.031 348.638 206.007 345.524 206.007 341.545ZM212.206 342.014C212.206 344.443 212.769 346.358 213.896 347.759C215.041 349.145 216.62 349.838 218.635 349.838C221.146 349.838 223.007 348.899 224.22 347.022V336.381C223.042 334.548 221.197 333.631 218.687 333.631C216.637 333.631 215.041 334.339 213.896 335.755C212.769 337.171 212.206 339.257 212.206 342.014Z" fill="#0017E8"/>
<path d="M243.483 353.817H237.259V319.481H243.483V353.817Z" fill="#0017E8"/>
<path d="M249.119 341.5C249.119 339.13 249.657 336.999 250.733 335.107C251.809 333.199 253.32 331.739 255.267 330.725C257.214 329.697 259.451 329.183 261.979 329.183C265.718 329.183 268.75 330.233 271.072 332.335C273.412 334.436 274.676 337.223 274.864 340.695L274.889 341.969C274.889 344.354 274.36 346.485 273.301 348.363C272.259 350.241 270.756 351.694 268.792 352.722C266.846 353.75 264.591 354.264 262.03 354.264C258.119 354.264 254.985 353.132 252.628 350.866C250.289 348.586 249.119 345.554 249.119 341.768V341.5ZM255.344 341.969C255.344 344.458 255.933 346.41 257.111 347.826C258.29 349.227 259.929 349.928 262.03 349.928C264.13 349.928 265.761 349.212 266.922 347.782C268.101 346.351 268.69 344.257 268.69 341.5C268.69 339.056 268.084 337.119 266.871 335.688C265.676 334.257 264.045 333.542 261.979 333.542C259.946 333.542 258.332 334.25 257.137 335.666C255.942 337.066 255.344 339.168 255.344 341.969Z" fill="#0017E8"/>
<path d="M287.954 323.751V329.63H292.846V333.654H287.954V347.156C287.954 348.08 288.158 348.75 288.568 349.168C288.995 349.57 289.747 349.771 290.823 349.771C291.54 349.771 292.266 349.697 293 349.548V353.75C291.583 354.093 290.216 354.264 288.901 354.264C284.12 354.264 281.729 351.962 281.729 347.357V333.654H277.169V329.63H281.729V323.751H287.954Z" fill="#0017E8"/>
<path d="M197.217 329.63C197.217 329.63 196.22 346.038 191.582 346.038C186.943 346.038 185.715 329.63 185.715 329.63H179.004L188.875 354.264C187.858 358.193 186.561 359.761 181.233 358.981V363.184C182.326 363.452 183.325 363.586 184.23 363.586C188.277 363.586 191.146 361.552 192.837 357.483L203.852 329.63H197.217Z" fill="#0017E8"/>
</g>
<defs>
<clipPath id="clip0">
<rect width="400" height="650" rx="15" fill="white"/>
</clipPath>
</defs>
</svg>
