<svg width="400" height="650" viewBox="0 0 400 650" fill="none" xmlns="http://www.w3.org/2000/svg">
<rect width="400" height="650" rx="15" fill="#FF2D55"/>
<path d="M82 324.5C82 265.129 130.129 217 189.5 217H297V324.5C297 383.871 248.871 432 189.5 432C130.129 432 82 383.871 82 324.5Z" fill="white"/>
<path d="M133.605 344L133.142 328.692L133.117 326.983L133.19 322.101C132.784 323.11 132.36 324.127 131.921 325.152C131.498 326.178 128.69 332.46 123.498 344H117.102L115.954 316.998H121.35L121.667 332.77C121.634 334.186 121.545 336.179 121.398 338.751H121.545C122.619 335.886 123.506 333.673 124.206 332.11L130.993 316.998H137.194L137.658 331.744L137.683 333.038L137.609 338.751H137.756C138.033 337.937 138.496 336.651 139.147 334.894C139.799 333.119 140.311 331.785 140.686 330.89C141.076 329.994 143.127 325.364 146.838 316.998H152.795L140.148 344H133.605ZM166.809 320.904C165.246 320.904 163.773 321.604 162.39 323.004C161.022 324.404 160.038 326.251 159.436 328.546H160.144C163.203 328.546 165.596 328.115 167.321 327.252C169.047 326.373 169.909 325.136 169.909 323.541C169.909 322.711 169.649 322.068 169.128 321.612C168.607 321.14 167.834 320.904 166.809 320.904ZM163.098 344.488C159.891 344.488 157.385 343.585 155.578 341.778C153.788 339.972 152.893 337.449 152.893 334.21C152.893 330.987 153.519 327.993 154.772 325.226C156.042 322.442 157.751 320.294 159.899 318.78C162.064 317.267 164.481 316.51 167.15 316.51C169.771 316.51 171.805 317.104 173.254 318.292C174.719 319.464 175.451 321.132 175.451 323.297C175.451 326.259 174.092 328.578 171.374 330.255C168.672 331.915 164.815 332.745 159.802 332.745H158.752L158.703 333.502V334.21C158.703 336.017 159.159 337.433 160.07 338.458C160.998 339.483 162.373 339.996 164.196 339.996C165.368 339.996 166.532 339.841 167.688 339.532C168.843 339.223 170.21 338.694 171.789 337.945V342.511C170.227 343.227 168.786 343.731 167.468 344.024C166.166 344.334 164.709 344.488 163.098 344.488ZM199.597 344.488C197.302 344.488 195.487 343.666 194.152 342.022C192.818 340.362 192.15 338.035 192.15 335.04C192.15 331.752 192.712 328.676 193.835 325.812C194.974 322.947 196.537 320.685 198.522 319.024C200.508 317.348 202.689 316.51 205.065 316.51C206.644 316.51 208.003 316.884 209.143 317.633C210.282 318.365 211.169 319.439 211.804 320.855H212.048L213.562 316.998H217.956L212.194 344H207.751L208.264 339.703H208.117C205.546 342.893 202.705 344.488 199.597 344.488ZM201.696 339.85C203.031 339.85 204.341 339.223 205.627 337.97C206.913 336.7 207.971 335.007 208.801 332.892C209.631 330.776 210.046 328.465 210.046 325.958C210.046 324.526 209.663 323.378 208.898 322.516C208.133 321.637 207.132 321.197 205.896 321.197C204.512 321.197 203.21 321.824 201.989 323.077C200.769 324.33 199.792 326.039 199.06 328.204C198.327 330.353 197.961 332.582 197.961 334.894C197.961 336.554 198.286 337.799 198.938 338.629C199.605 339.443 200.524 339.85 201.696 339.85ZM238.269 316.51C239.278 316.51 240.157 316.607 240.905 316.803L239.66 322.149C238.781 321.922 237.951 321.808 237.17 321.808C235.119 321.808 233.288 322.727 231.677 324.566C230.065 326.406 228.942 328.814 228.308 331.793L225.72 344H219.958L225.72 316.998H230.212L229.699 322.003H229.919C231.27 320.05 232.621 318.65 233.972 317.804C235.323 316.941 236.755 316.51 238.269 316.51ZM255.432 320.904C253.869 320.904 252.396 321.604 251.013 323.004C249.646 324.404 248.661 326.251 248.059 328.546H248.767C251.826 328.546 254.219 328.115 255.944 327.252C257.67 326.373 258.532 325.136 258.532 323.541C258.532 322.711 258.272 322.068 257.751 321.612C257.23 321.14 256.457 320.904 255.432 320.904ZM251.721 344.488C248.514 344.488 246.008 343.585 244.201 341.778C242.411 339.972 241.516 337.449 241.516 334.21C241.516 330.987 242.142 327.993 243.396 325.226C244.665 322.442 246.374 320.294 248.522 318.78C250.687 317.267 253.104 316.51 255.773 316.51C258.394 316.51 260.428 317.104 261.877 318.292C263.342 319.464 264.074 321.132 264.074 323.297C264.074 326.259 262.715 328.578 259.997 330.255C257.295 331.915 253.438 332.745 248.425 332.745H247.375L247.326 333.502V334.21C247.326 336.017 247.782 337.433 248.693 338.458C249.621 339.483 250.996 339.996 252.819 339.996C253.991 339.996 255.155 339.841 256.311 339.532C257.466 339.223 258.833 338.694 260.412 337.945V342.511C258.85 343.227 257.409 343.731 256.091 344.024C254.789 344.334 253.332 344.488 251.721 344.488Z" fill="#FF2851"/>
</svg>
